
<?xml version="1.0" encoding="utf-8"?>
<svg fill="#000000" width="100px" height="100px" viewBox="0 0 24 24" xmlns="http://www.w3.org/2000/svg">
  <g transform="translate(0,-2)">
  <path d="M4.2,10 C4.2,9.3 4.8,8.7 5.6,8.7 C6.3,8.7 6.8,9.2 6.8,9.8 C6.8,10.2 6.6,10.5 6.2,10.9 C5.7,11.3 5.4,11.6 5.4,12 H7 v0.6 H4.4 c0-0.6 0.3-1 0.8-1.4 c0.4-0.3 0.7-0.5 0.7-0.9 0-0.3-0.2-0.5-0.5-0.5 -0.3,0-0.6,0.3-0.6,0.6 H4.2 Z" fill="black"/>
</g>  
  <!-- Square root symbol -->
  <path d="M3,13H4.5a1,1,0,0,1,.9.6L8,17l2.5-9.5a1,1,0,0,1,1-.8H21"
        style="fill:none;stroke:black;stroke-linecap:round;stroke-linejoin:round;stroke-width:1.5;" />
  
  <!-- 'x' under the root -->
  <path d="M13.8 16l1.6-2.3-1.5-2.2h1l1 1.5 1-1.5h1l-1.5 2.2 1.6 2.3h-1l-1.1-1.6-1.1 1.6h-1z"/>
</svg>
